<?xml version="1.0" encoding="utf-8"?>
<svg version="1.1"
	 id="svg23" xmlns:inkscape="http://www.inkscape.org/namespaces/inkscape" xmlns:sodipodi="http://sodipodi.sourceforge.net/DTD/sodipodi-0.dtd" xmlns:svg="http://www.w3.org/2000/svg"
	 xmlns="http://www.w3.org/2000/svg" xmlns:xlink="http://www.w3.org/1999/xlink" x="0px" y="0px" viewBox="0 0 308.8 304.9"
	 style="enable-background:new 0 0 308.8 304.9;" xml:space="preserve">
<style type="text/css">
	.st0{fill:#D6CD25;}
	.st1{fill:#CE4F09;}
	.st2{fill:#FFFFFF;}
</style>
<path id="path9" class="st0" d="M303.7,162.8l0-1l-0.1-1.4l-0.3,1.5L303.7,162.8z M299.1,180.5l-0.2,0.2l0,1l0.6-1L299.1,180.5z
	 M300.7,172.7l-0.1-0.4l-0.2,0.2L300.7,172.7z M289.8,95.2l-0.3-1.6l-0.3,0.5C289.1,94.6,289.3,95,289.8,95.2z M293.5,107.9
	c0.2,0.6,0.6,1.2,1,1.7c0-0.7-0.1-1.4-0.4-2c-0.1-0.4-0.3-0.6-0.5-0.3L293.5,107.9z M291.8,102.6l0.5,0.3c0.3-0.5,0.1-1.7,0.5-2.4
	l-0.5-0.3C291.1,100.5,291.2,100.9,291.8,102.6z M230.3,277.1l-0.2,0.2l1.5-0.7L230.3,277.1z M237.6,273.3c-0.5,1.4-2.2,1.3-3.1,2.1
	l-0.2,0.2l0.9-0.4l2.8-1.6l2.9-1.9l-0.9,0.4L237.6,273.3z M254.8,260.9l0.2-0.2l2.3-2.6l-0.8,1.2L254.8,260.9z M250,264.6l-3,2.5
	C248.2,266.5,249.2,265.6,250,264.6z M263.9,243c0.2,0.5,0.5,0.9,0.9,1.3l0.8-1.2l-0.3-1.2l-1.3,0.5L263.9,243z M255.8,254
	c-0.1-0.1-0.2-0.1-0.2-0.2L255.8,254z M60.6,280.7l0.5-0.7l1,0.6l-0.5,0.7c-0.2,0.2,0.4,0.9,0.8,0.9c0.4-0.1,1.8,0.8,2.4,0.5
	c0.3-0.2,0.7-0.2,1,0l0.7,1.1c0.1,0.1,0.3,0.2,0.5,0.3l0.3-0.5l1,0c-0.6-0.7-1.1-1.4-1.1-2c-0.1-0.1-0.3-0.2-0.5-0.3
	c-0.2-0.2-0.5-0.3-0.3-0.6l0.2-0.2c-0.2-0.2-0.4-0.4-0.6-0.7c-0.3-0.9-0.9-1.7-1.5-2.4c-0.3-0.3-0.7-0.5-1.1-0.4l-0.2,0.2
	c-0.5-0.6-1.1-1.1-1.8-1.5l-1-0.6c-0.4-0.3-0.7-0.6-1-1l0.2-0.2l-1.1-2l-1.4-0.9c-1-0.5-1.8-1.4-2.2-2.4l0.3-0.5l0.8-0.2
	c0.8,0,1.6,0.4,2.1,1c1.2,1.1,2.5,2.1,3.9,2.9c0.2,0.2,0.6,0.1,0.6,0.1c-0.1-0.3-0.3-0.5-0.6-0.7l-1.4-0.9c-0.5-0.3-1.3-1.2-1.2-1.8
	c0.1-0.6-0.3-0.6-0.6-0.7l-1.1-1.4l-1.7-0.1c-0.2-0.8,0.4-1.1,1-1l-2.4-1.5l-0.5,0.7l-1-0.6c-0.8-1.1-1.8-2.1-2.9-2.9
	c-0.3-0.2-0.6-0.4-1-0.6c-1.1-0.7-2-1.5-2.8-2.5c-0.4-0.4-0.9-0.7-1.4-0.9l-1.2-1.8c-0.5-0.6-0.9-1.2-1.2-1.8l-1-1.7l-5.1-6.3
	c-2.6-0.7-3-3.3-3.8-5.2c-2.2-1-3.8-3.1-4.3-5.5l-1-0.6c-0.2-0.2-0.6-0.1-0.7,0.6l0.1,1.4l0.7,1.1l-0.3,0.5
	c-0.4,0.1-0.6,0.3-0.4,1.1l-0.3,0.5c-0.6,0.2-1.3-0.1-1.6-0.7c-0.5-0.6-1.1-1.1-1.8-1.5c-0.2-0.2-0.5-0.3-0.6-0.1l-0.3,0.5
	c-0.4,0.1-0.3,0.5,0.3,1.2l0.9,1.3l-0.5,0.7c-0.4,1.1-0.4,1.1,0.5,2.4l1.4,2.6l1,1.7l1.8,2.5c0.9,0.5,1.6,1.3,1.9,2.3
	c0.2,0.6,0.7,1,1.3,1.2c0.5,0.3,0.7,0.5,1.1,1.4l0.5,1.3l1.6,2.8c0.7,0.6,1.3,1.2,1.9,1.9c0.7,1.1,1.6,2,2.7,2.7
	c0.7,0.6,1.2,1.3,1.7,2.1l1.2,0.8c0.6,0.1,0.6,0.1,1.4,0.9s0.3,0.6,0.2,0.8c-0.3,0-0.6,0-0.9-0.2l0.9,1.3c0.5,0.7,1.1,1.4,1.9,1.9
	l0.7,0.5c0.2,0.2,0.7,0.5,0.9,0.2l-1-0.6c0.3-0.5,0-1,0.1-1.7c0.6,0.5,1.1,1,1.8,1.5l-0.1,1.3c0.1,0.6,0.6,1.1,1.1,1.4
	c0.3,0.1,0.5,0.3,0.7,0.5c0.9,1,1.9,1.9,3.1,2.7l0.5,0.3l1.9,2.3l-0.2,0.2c0,0.3,0.3,0.6,0.6,0.7l0.2-0.2c0.8,0.3,1.4,0.9,1.6,1.7
	C58.1,281.7,59.5,281.5,60.6,280.7L60.6,280.7z M278.9,87.9c0.1,0.2,0.3,0.3,0.5,0.3l0.8-0.2l-0.2-0.8l-1-1.7
	c-0.7-0.5-1-1.7-1.7-2.1l-0.5-0.3l-0.2,0.2L278.9,87.9z M70,280.9l-0.2,0.2c0.5,1.1,1.5,1.9,2.6,2.3c0.5,0.2,0.9,0.7,0.9,1.3
	l-0.2,0.2l0.5,0.3l0.8-0.2l0.2-0.2c-0.1-0.4-0.4-0.9-0.3-1.2s-0.1-0.4-0.6-0.7l-0.7-0.5C72.2,281.7,71.1,281.2,70,280.9L70,280.9z
	 M129.9,5.8c0.2-0.2-0.5-0.3-0.7-0.5L126.1,6l-0.2,0.2c1,0,1.9,0.2,2,0.6c0.3-0.4,0.8-0.7,1.3-0.9L129.9,5.8z M70.7,284.5l-0.2,0.2
	c0.4,0.4,0.9,0.7,1.4,0.9c0.2-0.9,0.2-0.9-1-1.7C69.9,283.2,70.7,284.1,70.7,284.5L70.7,284.5z"/>
<path id="path7" class="st1" d="M30.6,233.8l2.9,3.9l2.7,3.8c0.9,1.3,3.4,4.2,5,6c0.5,0.5,1,1.1,1.2,1.8l-0.2,0.2l2.6,1.7
	c-0.5,1.4,0.8,1.9,1.4,2.6l10.1,9.2c4.1,4.4,9.2,7.7,14.9,9.6c1.3,1.1,3,1.6,4.6,1.3l10.3,6.7c2.6,0.7,4.1,3.7,7.1,3.2l8.9,3
	c0.1,0.1,0.3,0.2,0.5,0.3l1.8,0.4c0.4,0.1,0.7,0.3,1,0.6l-0.2,0.2c-0.5,0.7,0.7,1.5,1.7,2.1c1,0.5,2.1,0.7,3.3,0.7l1.4-0.1
	c0.7,0,1.4,0.2,2,0.6c1.6,1.1,3.3,2,5.1,2.6l1.4,0.9c2,0.6,4.2,1.4,6.2,2l1.5,0.3c1.1,0,2.3,0.2,3.3,0.7c0.8,0.3,1.6,0.5,2.4,0.5
	l3.3,0.1c0.6-0.2,1.1-0.6,1.4-1.1l0.2-0.2l0.7,0.5l0.3-0.5l1.9,1.2l0.2-0.2l0.5,0.3c0.1,0.1,0.2,0.1,0.2,0.2l0.5,0.3
	c0.3,0.6,0.6,0.7,1.4,0.5c0.7-0.1,1.4-0.2,2.1,0l1.8,0.4c1.3,0.4,2.7,0.4,4,0.2c0.8-0.2,1.6-0.2,2.5-0.1l4.9,0.8
	c1.1,0.2,2.2,0.2,3.3,0.1l2.9-0.2c0.9-0.1,1.7,0,2.5,0.3l1,0c0.5,0,1,0.2,1.4,0.5c0.4,0.2,0.8,0.3,1.3,0.1l1.3-0.5l-0.5-0.3
	c-0.6-0.1-0.7-0.5-0.6-0.7l0.3-0.5l-2.9-0.8l-1.7-0.1l-3.2,0.3l0.2-0.2l0.8-0.2l0.8-0.2c1.6,0.7,3.5,0.2,4.5-1.2l1.7,1.1
	c3.3,1.1,5.6-1.8,8.5-2c1.4,0.3,2.9-0.2,3.9-1.2l3.4-0.5c4.1-0.2,8.2-1.1,12-2.8l2.7-1l1.3-0.5c2.8-0.6,5.9,0.4,7.7-2.5l2.4-1.1
	l3.1-1.1c2.2,0.4,4.5-0.5,5.9-2.3c2.4-0.6,4.7-1.9,6.4-3.7l-0.8,0.2l-1.7,0.6l-3.7,2c-2.2,1.2-4.6,2.1-7.1,2.6c-1.7,0.4-3.4,1-5,1.9
	l-2.1,0.7c-0.4,0.1-0.8,0.2-0.9-0.2l0.2-0.2l2.1-1.7c1.4-1.5,3.1-2.7,5-3.6l3.3-2l3.7-2l0.3-0.5c0.7-0.6,1.6-0.3,2.4-1.1l1.7-1.6
	l5.1-5.2c0.9-0.6,2-1,3.1-1.1c0.5-0.8,1.3-1.3,2.1-1.7l2.5-1.8c1.9-2,4-3.8,6.3-5.5l1.4-1.1l2.3-1.9l0.8-1.2l1,0l0.2,0.2l2.5-3.8
	l2.1-0.7l0.1-1.3l0.1-1.3l0.3-0.5l2.6-1.4c-0.5-2.4,2.2-2.3,2.7-3.7l2.3-1.9c0.1-1.2,0.8-2.3,1.9-2.9l1.9-2.9
	c0.6-0.6,1.5-0.7,2.2-0.3l0,1l-0.9,1.4c-0.3,0-0.6-0.1-0.9-0.2c-0.5-0.3-0.8,0.2-1.3,0.9l-0.3,0.5l2.1,0c1-0.3,1.7-1.1,2-2.1
	l0.8-2.9l0.2-0.2c-0.9,0.4-1,0-1.5-0.3l2.5-3.8l1.1-0.7l2.2-1.3l0.2-0.2l1.6-1.4l3.6-5.5l-0.1,1.3l-0.8,2.2l-0.5,0.7l-1.9,4.6
	l-1.2,3l-0.4,1.8l1.7-2.6c2.3-2.3,4.1-5.1,5.3-8.2l2-3.1l5.5-8c1.9-3.5,4.3-6.7,3.2-11.2c4.8-5.4,5.6-12.4,6.4-19.4l1.2-6.7
	c1.7-3.7,2.2-7.7,1.4-11.7l-0.5,0.7l-0.1,1.7l0,2.7l-0.6,4.1l-1.1,2.7c0.1,2.1-0.2,4.2-0.9,6.2l-0.7,2.6l-0.3,0.5
	c-0.6-0.1-0.8,1.2-1.1,1.7l-0.3,0.5c-0.2,0.2-0.4,0.1-0.2-0.2l0-2.1l-0.8,2.9l-0.8,2.2l0.3-4.2l1.1-3.7c0.2-0.7,0.1-1.5-0.3-2.2
	l-0.7-1.5l-0.5,0.7l-0.1,1.3c0.4,1,0.4,2.1,0,3.1l-1.1,4.4l-0.8,1.2c0,0.2-0.2,0.3-0.4,0.3c-0.2,0-0.3-0.2-0.3-0.4l0,0
	c-0.2-0.8,0.2-1.9,0-2.7l-0.3,0.5l2.8-9.1l2-11.6c-0.4-2.5-0.2-5,0.7-7.4c-0.3-1.9-0.3-3.9,0-5.8l0.8-2.2c-0.9-1.4-1-3.1-0.1-4.5
	l-0.7-1.5c-0.6-1.5-0.9-3-0.8-4.6l0.2-0.2l0.2,0.2l-0.2-0.8l-0.2-0.8l1.1-2.7l0.8-1.2l-0.6-1.7c-0.1-0.4-0.3-0.6-0.5-0.3l-0.2,0.2
	c-0.5-2.4-1.8-4.6-1.3-7l-1.6-5.5c-2-3.3-1.1-6.8-2.2-10.3c-1.2-3.5-7.2-9.4-4.3-16l1,0l-0.9-1.3c-0.6-0.7-1-1.4-1.3-2.2
	c-0.9-2.1-2-4.2-3.2-6.1c-0.2-0.4-0.6-0.8-1-1c-0.7-0.4-1.3-1-1.6-1.7l-1.9-2.9l-0.3,0.5c-0.5,0.7-1.2,0.3-2.1,0l1.4,3.6
	c0.4,0.8,0.7,1.6,0.8,2.5c-0.1,1.2,0.1,2.5,0.8,3.6l0.3,1.2l0.3,1.6l1.7,3.1l-0.3,0.5c-0.4,0.1-0.4,0.1-0.3,0.5l0.7,1.1l-0.8,1.2
	l-1.9-1.2l0.4,2c0.2,0.5,0.7,0.7,1.2,0.8c0.3,0.1,0.5,0.4,0.6,0.7c0.1,0.5,0.4,1.1,0.7,1.5c0.8,0.9,1.2,2.1,0.9,3.3l0,1l0.3,1.2
	c0.1,1.2,0.5,2.4,1.2,3.5l1,0c0.2,0.2,0.6,0.7,0.7,1.1l-0.8,1.2l1,2.7l-0.2,1.9l-0.3,0.5c-2.2-8.4-5.1-16.5-8.8-24.4l0.2-0.2
	l-0.2,0.2c-4.9-10.8-11.2-20.9-18.7-30.1l0.8-1.2l1.7-0.6c0.8-0.2,1.8,0.8,2.8,0.4l-0.2,0.2c0.7,1.5,3,1.6,3.6,3.4
	c0.6,1.7,3.2,2.4,4.3-0.3c1.1-2.7,1.1-4.4-1.6-5.5c-2.7-1.1-2.8-5.2-5.3-7.1c-2.5-1.9-0.4-2-1.7-2.1l-9.4-6c-2.1-1-3.6-4-6.3-1.3
	l-4.2,1.7c-1.4-0.5-3.1-3.7-4.5,0.1c-3.7-3-7.6-5.8-11.6-8.5c-2.6-1.7-5.4-3.2-8.1-4.9l1,0.6c1.1,0.4,2.1,1,3.4,1.5l-0.3-1.2L225,32
	l0.8-1.2c-1.2-0.8-1.8-1.5-1.5-2.4c-0.2-0.4-0.6-0.8-1-1c-0.2-0.2-0.9-0.2-0.8,0.2c0.1,0.4-1.1,0.7-2,1.1c-0.9,0.4-0.4-0.9,0.1-1.3
	s0.1-0.6-0.4-0.9l-0.7-0.5l-4.4-1.1c-0.7-0.5-1.3-1.2-2-1.6c-0.7-0.4-1.4-0.7-2.2-0.8l0.5-0.7l0.7,0.5l1.6-1.4l1.4,0.9
	c0.4,0.3,0.8,0.6,1.2,0.8c1.6,0.6,3.2,1.3,4.8,2.1c3.1,1.3,6,3,8.7,4.9c0.4,0.2,0.8,0.6,1,1l-0.5-0.3c-0.5-0.1-0.9-0.3-1.4-0.5
	c-0.3-0.2-0.7-0.4-1.1-0.4c-0.6-0.1-1.3-0.1-1.6,0.3c-0.3,0.5,0.1,0.4,0.3,0.6c0.4,0.2,0.9,0.4,1.4,0.5c1.3,0.2,2.5,0.7,3.6,1.3
	c0.7,0.3,1.4,0.4,2.1,0.4c0.9,0.1,1.8,0.4,2.5,0.9l1.9,1.2c0.7,0.5,1.3,1.2,2,1.6c0.3,0.3,0.7,0.4,1.1,0.4l0.2-0.2
	c0.3-2.5,0.6-2-2.3-4.9l-4.3-2.8c-1.7-1.1-3.2-2.4-5-3.3c-1.8-1.2-3.8-2.3-5.8-3.1c-0.4-0.2-0.8-0.5-1.2-0.8
	c-0.7-0.5-1.5-0.9-2.3-1.2c-1.2-0.5-2.3-1.1-3.3-1.8c-1.3-1-2.8-1.8-4.4-2.2c-0.4-0.2-0.7-0.4-1-0.6c-0.6-0.5-1.3-0.8-2.1-1
	c-0.9-0.2-1.7-0.5-2.5-0.9c-2-0.9-4-1.6-6.1-2.2c-0.9-0.3-1.8-0.6-2.7-1.1c-0.7-0.3-1.4-0.4-2.1-0.4c-1.3,0.1-2.5-0.2-3.7-0.7
	c-0.9-0.3-1.9-0.6-2.9-0.8l-4-1.2c-1.5-0.5-3-0.8-4.5-0.9c-2.1-0.2-4.3-0.6-6.3-1.3l-1.5-0.3c-1.1,0.2-2.2,0.1-3.2-0.3
	c-0.8-0.3-1.7-0.4-2.5-0.3c-0.5,0-1-0.1-1.5-0.3c-0.9-0.2-1.3-0.1-1.3,0.5l-0.2,0.2l-2.2-1.4l-3.2-0.3L156,2.9l-4.6,0.8L149.8,4
	c-1.2,0.3-2.3,0.9-3.8,0.6l-1.3,0.5c-0.5,0.2-1.1,0.2-1.7-0.1l-2-0.6c-1-0.2-2.1-0.1-3.1,0l-1.1,0.7l-0.5,0.7
	c-0.2,0.2-0.6,0.1-0.8-0.1c0,0-0.1-0.1-0.1-0.1c-0.4-0.3-0.8-0.6-1.2-0.8c-0.6-0.2-1.3-0.1-1.8,0.2l-0.3,0.5
	c-0.4,1.1-1.7,1.6-3.5,1.8l-0.2,0.2c0.2,0.2,0.1,0.4,0.5,0.3l0.5,0.3c0.2,0.2,0.3,0.6-0.1,0.6c-0.6,0.3-1.3,0.2-1.9-0.2L127,8.3
	c-1.1-0.5-2.3-0.8-3.5-0.9c-1.5,0.7-1.5,0.7-1,1c0.5,0.3,0.5,0.3,0.2,0.8l-0.6,1l-1,0l-2.4,1.1c-3,0.4-4.5,3.2-6.9,4.4l-6.7,1.5
	l-0.3,0.5c-2.2-0.4-4.5,0.1-6.3,1.4c-1.2,0-2.3,0.5-3,1.5c-1.2-0.8-2.4,0.5-3.4,1.6c-0.9,0.1-1.7,0.6-2.2,1.3l-0.3,0.5
	c-1.6,0.3-2.9,1.4-3.5,2.8l-3.3,0.9L76.6,32l-0.5-0.3c-3.4-0.5-4.3,3-6.3,4.5l-2.7,2l-0.6,1c-2.6,2.4-5.9,4.4-6.9,8.1
	c-0.3-0.3-0.6-0.5-1-0.6c-3.4,1.6-3.7,5.8-6.5,8c-1.3,1-2.3,2.4-2.9,3.9l-0.2,0.2l-1.7,1.6l-0.5,0.7L45.1,63l-0.5,0.7
	c0,0.5-0.3,1-0.8,1.2c-1.2,0.9-2.3,1.9-3.3,3l-0.9,1.4c0,0.7-0.4,1.4-1.1,1.7l-6,9.4c-1,1.2-1.7,2.6-2.2,4l-1.5,2.4l-0.3,1.5
	l-5.1,7.9L22.8,98l-0.1,1.7l-3.4,5.3l-1.4-0.9l2-3.1l1.4-3.2c0.4-1.1,1.1-1.7,1.3-2.6c0.2-1,0.5-1.9,1.1-2.7l1.3-3.6l0.6-1
	c1-1.1,1.7-2.4,2.1-3.8l2.8-4.3c0.1-0.9,0.6-1.7,1.4-2.2l7-10.8c0.8-0.8,1.2-2,1-3.1l0.5-0.7l0.9-0.4l0.7,0.5l1.9-2.9
	c1.1-0.7,2-1.6,2.7-2.7l3.9-6l1.6-1.4l1.3-0.9l4.2-4.4l0.8-1.2l1.3-0.9l4.9-4l3.1-2.7l3.4-5.3c0.2-0.2-0.1-0.4-0.3-0.6l-0.3,0.5
	c-3.2,2.4-6.2,4.9-9.7,7.1l-0.5,0.7l-1.9,1.9L55.2,43l-2,3.1l-1.4,1.1L50,48.5l-3.4,3.6l-2.2,2.3l-2.2,2.3L41,58.7l-1.7,1.6
	l-4.8,7.5l-2,2.1l-3.6,5.5l-1.1,2.7l-3.4,5.3c-0.6,1-0.7,1.6-0.4,2.1L22.5,88c-0.5,0.7-0.7,1.6-0.5,2.4c-0.1-0.4-0.2-0.2-0.6-0.1
	l-0.6,1l0.5,0.3c0.2,0.2,0.2,0.2,0.2,0.8c-0.1,0.6-0.7,1.6-1.3,1.5l-0.6,1l0,1c-0.3,0.5-0.3,0.5-0.6,0.3l-1.1,1.7l-0.3,1.5l-0.3,2.5
	c-0.9-0.2-1.6,0.3-2.5,2.8l-1.1,3.7l-1.9,2.9c-1.2,2.3-3.1,4.8-2.5,7.6L9,119.4l0.1,1.4l-1,3.1c-0.7,1.9-1.1,4-1.2,6l-0.1,1.3
	l-0.2,0.2l0,3.1l-0.1,1.3l-0.3,1.5l-0.6,1c-0.4,1.1-0.4,1.1,0.2,1.8c0.6,0.7,0.2,0.2,0.6-0.3l0.2-0.2l0.6,1.7l-0.3,0.5
	c-0.2,0.9-0.3,1.5-0.8,1.8l-0.3,0.5c-0.4,1.2-0.1,2.6,0.8,3.6c0.5,1.3-1.2,3-0.1,4.4l0.8,15.1c-1.5,2.8,0.5,5.1,0.7,7.9
	c0.2,2.9-0.9,7.2,0.6,10.6L8,188.6l-0.2,0.2c-1.1,1.1-1.2,2.8-0.2,4l-1-0.6c-0.3,2.5-3.5,3.9-2.8,7s6.5,4.2,7.6,8.3l0.1,2.5
	c1.9,3.8,4.6,7.3,7.8,10.1l0.2,0.8c0.7,0.5,1.7,1.1,1.5,2.4c0.1,1.3,1.2,2.3,2.6,2.3l0.3-0.5c0.1,0.3,0.4,0.4,0.7,0.5
	c-1.1,1.7,0.4,3,0.5,4.4l3.4,2.2c0.2,0.1,0.3,0.2,0.5,0.3C29.6,232.9,30.1,233.4,30.6,233.8L30.6,233.8z"/>
<path class="st2" d="M168.6,85.3c-2.1,0.2-3.9-0.2-5.8-0.8c-0.7-0.2-0.9-1.2-0.7-2.1c0.2-0.7,0.7-0.6,1.2-0.6
	c3.3,0.1,6.6,0.1,9.9,0.2c0.1,0,0.3,0,0.6,0.1c-1.9,2.4-1.5,5.2-1.6,7.9c0,2.7-0.1,5.4,0.3,8c0.4,2.7,1.3,5.5,2.2,8.1
	c2.2,5.8,4.6,11.4,6.7,17.2c1.6,4.2,2.7,8.6,4.3,12.8c1.6,4.3,3.4,8.6,5.1,12.9c1.8,4.6,3.6,9.3,5.5,13.9c1.2,2.9,2.6,5.7,3.8,8.6
	c0.3,0.8,0.6,1.6,0.7,2.5c0.2,1.6-0.6,2.4-2.2,2.5c-4.3,0.1-8.6,0.1-13,0.2c-0.2,0-0.4,0-0.6,0c-0.9-0.1-2.1,0.1-2.5-0.3
	c-0.8-1.1-1.2-2.5-1.7-3.7c-0.1-0.1,0.2-0.5,0.5-0.6c0.3-0.1,0.7-0.1,1.1-0.1c4.4,0,8.9,0.1,13.3,0.2c0.2,0,0.5,0,0.8,0
	c-0.1-0.3,0-0.4-0.1-0.6c-2.3-4.4-3.9-9-5.4-13.7c-0.4-1.2-0.9-2.4-1.2-3.7c-0.2-0.7-0.7-0.9-1.3-0.7c-1.3,0.5-2.6,1-3.8,1.6
	c-0.2,0.1-0.3,0.5-0.5,0.7c0.3,0.2,0.5,0.4,0.8,0.5c0.6,0.2,1.1,0.2,1.7,0.3c0.8,0.2,1,0.8,0.5,1.4c-1.2,1.4-2.4,2.7-3.7,4
	c-0.9,0.8-1.5,0.7-2-0.4c-0.5-1.2-1.2-1.8-2.6-1.6c-0.7,0.1-1.7,0.2-1.9-0.9c-0.2-0.8,0.6-1.9,1.6-2.1c0.4-0.1,0.9-0.1,1.4-0.2
	c-0.1-0.3-0.1-0.7-0.2-1c-1.5-4.1-3-8.3-4.6-12.4c-0.2-0.6-0.1-0.9,0.5-1c0.1,0,0.2-0.1,0.3-0.1c1.7-0.5,2.2-0.3,2.8,1.4
	c0.6,1.6,1.1,3.2,1.7,4.7c3.4-1.3,4.3-3.2,3.3-6.5c-0.5-1.8-1-3.6-1.6-5.4c-0.3-0.8-0.8-1.5-1.3-2.2c-0.8-1.1-1.7-2.1-2.5-3.2
	c-1.3-1.8-2.5-3.5-3.7-5.4c-0.7-1.1-1.1-2.4-1.5-3.7c-0.3-0.7,1-2,2-2.1c1.3-0.1,1.4-0.4,0.8-1.6c-0.4-0.9-1.3-1-1.9-0.7
	c-1.4,0.7-2.7,1.5-4,2.4c-0.1,0.1-0.1,0.5,0,0.7c0.5,1,1.2,1.9,1.6,3c1,2.3,2,4.7,3,7.1c0.6,1.4,1.2,2.8,1.8,4.2
	c0.3,0.9,0.8,1.2,1.8,1c0.6-0.1,1.3,0,1.9,0.2c1.3,0.5,1.3,0.7,0.8,2c-0.6,1.4-1.1,1.6-2.6,1.4c-1.1-0.2-2.3-0.3-3.4-0.3
	c-0.6,0-0.9-0.2-1.2-0.7c-1.2-3-2.4-5.9-3.6-8.9c-1-2.4-1.6-5-3.1-7.2c-0.5-0.7-0.5-1.7-0.8-2.5c-1.5-4.4-3-8.9-4.5-13.3
	c-0.9-2.7-1.9-5.3-2.8-7.9c-0.8-2.1-1.2-2.4-3.5-2.4c-2.5,0-2.5,0-3.4,2.3c-1.9,4.7-3.8,9.5-5.6,14.2c-1.7,4.4-3.4,8.9-4.9,13.4
	c-1.2,3.4-2.1,6.8-3.2,10.2c-0.3,1-0.9,2-1.5,2.9c-0.8,1-1.6,1-2.7,0.3c-0.9-0.5-1.8-1-2.7-1.4c-0.5-0.2-0.9-0.4-1.4-0.6
	c-1-0.6-1-0.8-0.6-1.9c1.2-2.9,2.3-5.9,3.4-8.9c0.3-0.9,0.1-1.6-0.9-2.1c-0.4,0.9-0.7,1.8-1.1,2.7c-1.2,3-2.4,6-3.6,9.1
	c0,0.1-0.1,0.2-0.1,0.3c-0.6,1.8-0.3,2.4,1.4,3.3c1.9,1,3.7,2,5.6,3c0.5,0.3,0.6,0.5,0.4,1c-1.4,3.6-2.7,7.2-4.1,10.8
	c-0.1,0.2-0.1,0.4-0.1,0.5c-0.4,0.8,0,1.1,0.7,1.1c1,0.1,1.8,0.6,2.5,1.4c0.8,1,0.6,1.9-0.6,2.2c-0.5,0.1-1,0.1-1.4,0.1
	c-0.4,0-0.8,0-1.1,0.1c0,0.7,0,1.3-0.1,1.8c-0.3,1.1-0.9,1.4-1.9,0.8c-1.5-1-3-2-4.5-3.2c-0.8-0.6-0.6-1,0.1-1.6
	c0.7-0.6,1.4-1.2,2-1.9c0.4-0.5,0.4-1.1-0.1-1.5c-0.5-0.4-1.1-0.4-1.7,0c-0.2,0.2-0.4,0.3-0.5,0.5c-0.4,0.3-0.8,0.3-1.2-0.1
	c-0.9-0.9-1.6-0.9-2.2,0.2c-1,1.7-2,3.5-2.8,5.4c-1.2,2.7-2.3,5.4-3.5,8c-0.3,0.7-0.9,1.2-1.3,1.9c-0.2,0.3-0.2,0.6-0.4,0.9
	c0.3,0.1,0.6,0.3,0.9,0.3c4.8,0.1,9.6,0.1,14.4,0.1c0.4,0,0.7,0,1.2,0c-0.5,1.7-0.9,3.4-2.1,4.6c-0.3,0.3-0.9,0.5-1.4,0.5
	c-5.3,0-10.7-0.1-16-0.1c-1,0-1.9-0.2-2.4-1.3c-0.4-1,0.1-1.9,0.5-2.8c2.1-4.8,4.2-9.5,6.2-14.3c2.6-6.2,5-12.4,7.5-18.6
	c2.3-5.5,4.9-11,7.1-16.5c1.9-4.6,3.5-9.2,5.3-13.8c0.5-1.2,1.1-2.4,1.8-3.4c1.9-2.6,2.7-5.6,2.8-8.7c0.1-4.2,0.2-8.3,0.1-12.5
	c0-0.9-0.3-1.9-0.5-2.9c0.2,0,0.5-0.1,0.8-0.1c3.2,0,6.4,0,9.6,0c0.9,0,1.5,0.5,1.5,1.1c0,1.3-0.6,1.9-1.6,2
	c-1.4,0.2-2.9,0.3-4.3,0.6c-0.3,0-0.6,0.6-0.6,0.9c-0.1,2.3-0.1,4.7-0.2,7c-0.2,2.5-0.5,5-0.8,7.5c-0.1,0.7-0.6,1.4-0.9,2.2
	c-0.2,0.4-0.4,0.9-0.5,1.5c1.3-0.5,2.4-0.2,3.6,0.2c0.6,0.2,1.1-0.2,1.3-0.7c0.4-1.5,0.8-3.1,1.1-4.6c0.1-0.8,0-1.7,0.1-2.5
	c0-0.3,0-0.5,0.1-0.8c1.8,0.8,1.9,0.8,2.9-1c0.4-0.6,0.9-0.9,1.6-0.9c3,0,6,0,9,0.1c0.4,0,0.8,0.3,1.1,0.6c0.2,0.2,0.4,0.5,0.6,0.8
	c0.9,1.3,0.9,1.3,2.3,0.5c-0.1,0.4-0.1,0.8-0.2,1.1c-0.6,2.3-0.6,4.5,0.9,6.4c0.5,0.7,1.2,0.9,2,0.8c0.8-0.1,1.6-0.3,2.7-0.4
	c-0.3-0.5-0.6-1-0.8-1.5c-0.3-0.7-0.7-1.5-0.8-2.2c-0.1-2.8,0-5.6,0.1-8.3c0-1.6,0-3.3,0.1-4.9C168.4,86.5,168.5,85.9,168.6,85.3z
	 M141,117.3c-0.1-0.1-0.2-0.1-0.3-0.2c-0.7,0.3-1.5,0.5-2.2,0.8c-0.6,0.2-1.2,0.3-1.6-0.4c-0.3-0.7-0.1-1.3,0.5-1.7
	c0.8-0.5,1.5-1.2,2.4-1.5c1.5-0.5,2.2-1.7,2.7-3.1c0.1-0.3-0.1-0.9-0.4-1c-2.3-1.2-4.9-0.3-5.9,2.1c-0.1,0.2-0.2,0.4-0.3,0.7
	c-0.6,1.9-1.3,3.9-1.9,5.8c-0.5,1.5-0.6,1.6,0.8,2.5c0.7,0.5,0.9,0.9,0.6,1.7c-1,3.1-2,6.3-3,9.5c-0.5,1.5-0.1,2.4,1.4,3.5
	C136.1,129.7,138.8,123.6,141,117.3z M169.2,109.9c0.3,2.3,0.6,4.2,0.9,6.1c0,0.2,0.4,0.4,0.6,0.4c0.3-0.1,0.7-0.3,0.9-0.5
	c0.9-0.7,1.8-1.4,2.7-2.2c0.1-0.1,0.2-0.7,0-0.8c-1.2-1.2-2.5-2.4-3.8-3.5C169.9,108.9,169.2,109.3,169.2,109.9z M127.5,146.5
	c-0.1-1.7-1-2.6-2-3.3c-1.2-0.8-1.4-0.7-2,0.6c-0.2,0.4-0.3,0.7-0.5,1c-0.3,0.5-0.2,0.9,0.3,1.2c0.8,0.6,1.4,1.2,2.2,1.7
	c0.3,0.2,0.9,0.2,1.1,0C127,147.3,127.3,146.8,127.5,146.5z M128.7,150.4c-1.4,0.6-2.8,0.5-4.2,0.1c-0.8-0.2-1.5-0.4-2.3-0.6
	c-0.8-0.2-0.8,0.5-1,1c-0.2,0.6,0.1,0.7,0.7,0.8c1.5,0.2,2.9,0.6,4.3,0.9C128.1,152.9,128.6,152.5,128.7,150.4z M186.6,149.9
	c-0.2-0.7-0.5-1.1-1.1-0.8c-1.2,0.6-2.4,1.2-3.5,1.8c-0.5,0.3-0.5,0.8-0.2,1.3c0.2,0.3,0.7,0.7,1,0.7c0.8-0.2,1.7-0.5,2.4-1
	C185.7,151.4,186.1,150.6,186.6,149.9z M179.6,129.2c0.1,0,0.1-0.1,0.2-0.1c0-0.2-0.1-0.4-0.1-0.6c-0.5-1.5-1-2.9-1.4-4.4
	c-0.4-1.5-0.5-1.6-1.9-0.8c-0.1,0-0.2,0.1-0.2,0.1c-0.5,0.4-0.5,0.8-0.1,1.3c0.6,0.7,1.2,1.5,1.8,2.3
	C178.3,127.8,179,128.5,179.6,129.2z M147.7,178.7c0.1-0.2,0.2-0.5,0.3-0.7c0.2-0.5,0.4-1,0.7-1.3c0.8-0.8,1.2-1.7,1.5-2.7
	c0.7-2.9,1.4-5.9,0.4-8.8c-1.1-3.3-2.7-6.3-5.3-8.7c-1-1-2.3-1.3-3.8-1.4c0.5-0.8,0.9-1.6,1.4-2.2c0.5-0.7,1.2-1,2.1-0.8
	c1,0.3,2,0.5,2.9,1c1.3,0.7,2.7,1.6,3.8,2.5c1.9,1.6,2.9,3.8,3.2,6.3c0.2,1.6,0.4,3.1,0.6,4.7c0,0.1,0.1,0.2,0.1,0.3
	c0.1,0,0.2,0,0.2,0c0.1-0.6,0.2-1.3,0.1-1.9c-0.2-2.8,0.7-5.4,2.2-7.7c0.6-0.9,1.4-1.8,2.2-2.5c1.3-1,2.7-1.9,4.1-2.6
	c2.2-0.9,4.6,0,4.8,2.7c-0.2,0-0.3,0.1-0.5,0.1c-1.4-0.1-2.4,0.6-3.3,1.6c-1.3,1.7-2.7,3.4-4,5.2c-1.2,1.7-1.8,3.6-1.7,5.6
	c0.1,2.7,0.4,5.3,0.6,7.9c0,0.2,0,0.5,0.2,0.7c0.2,0.2,0.4,0.3,0.7,0.3c0.1,0,0.3-0.3,0.4-0.5c0.4-2.8,0.7-5.6,1.1-8.3
	c0.1-0.8,0.5-1.6,0.8-2.4c0.9-2,1.8-4,2.8-6c1.1-2.2,3.3-2.2,4.6-0.1c0,0.1,0.1,0.1,0.1,0.2c1,1.8,0.9,1.9-1,2.2
	c-0.8,0.1-1.3,0.5-1.4,1.3c-0.6,2.9-1.3,5.7-1.1,8.7c0.2,2.7,1.3,5.1,3,7.3c2.2,2.8,4.4,5.5,6.5,8.3c0.7,0.9,1.2,1.9,1.6,2.9
	c1.5,3.5-0.1,7.7-3.1,10.1c-0.5,0.4-1.4,0.3-2.1,0.4c-1.1,0.1-1.2,0.2-0.7,1.2c0.4,0.8,0.2,1.2-0.6,1.3c-0.7,0.1-1.4,0.2-2,0.2
	c-0.6,0-0.9,0.1-0.7,0.8c0.2,0.5,0,0.8-0.5,1.1c-3.1,1.6-6.1,1.1-8.3-1.5c-0.6-0.7-1-1.6-1.2-2.4c-0.4-1.6,0.2-2.6,1.8-3.3
	c1.8-0.8,3.7-1.5,5-3.1c1.7-2,2.7-4.2,1.6-6.7c-1-2.2-2.9-3.7-5.2-4.5c-1.1-0.4-1.5-0.1-2.2,1c0.3,0,0.5,0.1,0.8,0.1
	c2.9,0.2,4.8,2.7,4.3,5.6c-0.2,1-1,1.7-1.8,2.1c-1.5,0.7-3.1,1.4-4.6,2c-1.3,0.5-2.6,0.9-3.4,2.1c-0.1,0.1-0.6,0.2-0.7,0
	c-1.8-1.5-3.9-2.2-6.1-2.9c-1.7-0.6-3.1-1.5-4-3.1c-1-1.8-0.1-4.2,1.7-5.1c0.4-0.2,0.9-0.3,1.3-0.5c0.3-0.1,0.6-0.6,0.6-0.7
	c-0.1-0.3-0.5-0.7-0.7-0.7c-0.5,0-1,0.1-1.5,0.3c-1.8,1.1-3.4,2.4-4.4,4.3c-0.6,1.4-0.6,2.7,0,4c1.3,2.6,3.4,4.4,6,5.7
	c0.5,0.3,1,0.5,1.6,0.7c0.9,0.3,1.1,1,1,1.8c-0.2,1.5-0.5,3-1.9,3.8c-0.8,0.5-1.8,0.7-2.5,1.5c-0.2,0.3-0.9,0.3-1.4,0.2
	c-1.7-0.2-3.4-0.6-5.1-0.9c-0.1,0-0.2-0.1-0.3-0.1c0-1.8,0-1.8-1.7-1.8c-1.5,0-1.6-0.2-1.5-2.1c-0.1,0-0.2-0.1-0.2-0.1
	c-1.9,0.2-3.1-0.8-3.8-2.4c-0.7-1.4-1.4-2.8-1.9-4.3c-0.6-1.9,0.1-3.5,1.1-5.1c2.4-3.4,5.3-6.3,8.3-9.2c4.2-4,5.1-8.8,3.6-14.3
	c-0.3-1.1-0.5-2.3-0.8-3.4c0-0.2-0.3-0.4-0.4-0.5c-0.1-0.1-0.4,0-0.5-0.1c-0.6-0.3-1.5-0.2-1.6-1.2c-0.1-1,0.3-2.2,1.2-2.5
	c0.8-0.4,1.7-0.4,2.4,0.3c0.5,0.5,1,1.1,1.4,1.8c1.6,2.6,2.7,5.4,2.8,8.6c0.1,2.3,0.2,4.6,0.2,6.9c0,0.7-0.3,1.5-0.4,2.2
	c-0.1,0.4-0.1,0.8-0.1,1.2C147.5,178.6,147.6,178.7,147.7,178.7z M154.9,192.5c0.3-0.4,0.4-0.6,0.5-0.8c0.6-2.7,1.3-5.5,1.6-8.2
	c0.3-3.8,0.4-7.7,0.3-11.5c0-1-0.6-2.1-1.1-3c-0.4-0.7-0.9-0.7-1.3,0c-0.5,0.9-0.9,1.8-1.1,2.8c-1,6.2-0.7,12.4,0.4,18.5
	C154.4,191,154.7,191.6,154.9,192.5z M162,177.1c0,0.8,0,1.4,0,2.1C162.6,178.6,162.6,178.5,162,177.1z M126,180.4
	c-0.5,1.3-0.9,2.6-1.4,3.9c-1.5,3.9-2.9,7.9-4.4,11.8c-1.2,3.2-2.5,6.3-3.7,9.5c-2.4,6.5-4.8,13-7.2,19.4
	c-1.9,5.1-3.9,10.2-5.9,15.3c-1.2,3.2-2,6.4-0.9,9.8c0.3,1,0.9,1.9,1.4,3c-10.1,0-20.2,0-30.2,0c0.1-1.4,0.2-2.8,0.2-4.3
	c0-2.7-0.1-3-2.1-4.6c1.5-0.7,3.1-1.2,4.6-2.1c3-1.8,5.3-4.4,7.1-7.3c3-4.6,4.9-9.7,6.9-14.7c1.3-3.3,2.9-6.6,4.2-9.9
	c2.4-6,4.8-12.1,7.1-18.2c1.3-3.2,2.4-6.5,3.7-9.7c0.7-1.7,0.9-1.8,2.7-1.7c3.2,0.1,6.4,0.3,9.6,0.5c0.2,0,0.4,0.1,0.7,0.1
	c-0.1,0.3-0.1,0.6-0.2,0.9c-1.6,3.6-3.2,7.1-4.7,10.7c-2,5-3.8,10-5.6,15c-1.4,3.9-2.9,7.7-4.3,11.6c-0.9,2.4-1.7,4.8-2.6,7.3
	c-0.7,1.8-0.9,1.9-2.8,1.8c-0.9-0.1-1.7-0.3-2.9-0.5c0.4-0.4,0.5-0.6,0.7-0.7c2.1-1,3-2.9,3.7-4.9c1.5-4.3,2.9-8.6,4.4-12.8
	c2.6-7.3,5.3-14.6,8-21.9c0.2-0.6,0.1-1-0.3-1.5c-0.4-0.4-0.8-0.9-1.2-1.4c-0.7-0.9-1.4-0.9-1.8,0.2c-0.6,1.3-1,2.7-1.5,4.1
	c-1.3,3.7-2.5,7.4-3.9,11.1c-2.1,5.5-4.3,10.9-6.5,16.3c-1.5,3.8-3.1,7.5-4.7,11.3c-0.5,1.1-1,2.2-1.6,3.4c-0.3,0.7-0.1,0.9,0.6,0.9
	c3.5,0.1,7,0.2,10.5,0.3c0.3,0,0.8-0.3,0.9-0.6c0.9-2,1.8-4.1,2.6-6.2c2.4-6.2,4.8-12.3,7.1-18.5c2.3-6,4.5-12.1,6.8-18.2
	c0.8-2.3,1.7-4.6,2.5-6.9c0.3-0.9,0.8-1.3,1.7-1.3c0.9,0,1.8-0.1,2.7-0.2C125.9,180.2,125.9,180.3,126,180.4z M88.6,248.5
	c0.7,0.1,1.5-0.1,1.9,0.2c1.1,0.8,1.6,0.2,2.1-0.6c0.1-0.1,0.2-0.2,0.3-0.3c1-1.6,2.1-3.2,3.1-4.7c0.4-0.6,0.2-1-0.4-1.4
	c-0.4-0.3-0.9-0.6-1.1-1c-0.2-0.3-0.3-0.8-0.1-1.1c0.1-0.2,0.6-0.4,0.9-0.4c0.8,0,1.6,0.2,2.4,0.3c1.9,0.3,1.9,0.2,2.6-1.5
	c0-0.1,0.1-0.2,0.1-0.2c0.5-1.4,0.4-1.6-1.1-1.9c-0.1,0-0.3,0-0.4-0.1c-3.3-0.2-6.7-0.4-10-0.7c-0.3,0-0.6,0-0.8,0.2
	c-0.7,0.9-1.4,1.9-2,2.9c0.1,0.1,0.2,0.2,0.2,0.2c0.4,0,0.7-0.1,1.1-0.1c1.3,0.1,2.5,0,3.7,0.2c1.2,0.2,1.6,1,1.2,2.2
	c-0.5,1.4-1.2,2.7-1.8,4C89.8,246.1,89.1,247.3,88.6,248.5z M79.4,248.8c0.8,0,1.7-0.1,2.3,0.2c0.7,0.3,1.1,0.3,1.5-0.2
	c1.7-1.6,3.2-3.4,4-5.6c0.9-2.4,1.1-1.9-1.3-2.8c-0.8-0.3-1.3-0.1-1.7,0.6c-0.9,1.3-1.7,2.6-2.7,3.7
	C80.4,245.9,79.6,247.2,79.4,248.8z M212.2,228c-0.3,0.1-0.6,0.2-0.9,0.2c-0.5,0.1-1.1,0-1.6,0.1c-2.4,0-1.9,0.4-2.8-1.9
	c-1.9-5.4-3.8-10.7-5.7-16c-2.6-7.5-5.3-15-7.9-22.6c-0.8-2.3-1.8-4.6-2.6-6.8c-0.4-1-0.3-1.2,0.8-1.2c2.8-0.1,5.7-0.1,8.5-0.2
	c0.9,0,1.4,0.3,1.6,1.1c0.3,1,0.6,2,1,2.9c1.3,3.9,2.7,7.7,4.1,11.6c1.9,5.5,3.7,11,5.8,16.5c1.8,4.9,3.9,9.7,5.9,14.5
	c0.6,1.3,1.6,2.5,2.3,3.7c1.5,2.7,3.2,5.2,5.2,7.5c2.7,3.1,5.8,5.5,9.8,6.8c-2.3,2.8-2.3,5.7-0.8,8.9c-10.8,0-21.6,0-32.4,0
	c2.2-3.8,2.7-7.7,1.7-11.9c-1.3-5.4-3.5-10.5-5.4-15.7c-2-5.6-3.9-11.2-5.8-16.8c-1.2-3.5-2.6-7-3.9-10.5c-2-5.6-3.9-11.3-5.9-16.9
	c-0.1-0.3-0.1-0.7-0.2-1.2c1.2,0,2.2-0.1,3.3,0c0.3,0,0.6,0.6,0.7,0.9c1.2,3.3,2.4,6.6,3.6,10c2.2,6.1,4.4,12.3,6.7,18.4
	c2,5.4,4.2,10.8,6.2,16.2c0.7,1.8,1.3,3.7,1.9,5.6c0.3,0.8,0.7,1.2,1.7,1.1c2.8-0.2,5.7-0.3,8.5-0.5c1.1-0.1,1.2-0.3,0.7-1.2
	c-0.8-1.3-1.7-2.6-2.4-3.9c-0.9-2-1.7-4.2-2.5-6.3c-1.3-3.5-2.7-7-3.9-10.5c-2.2-6.3-4.3-12.7-6.5-19c-0.9-2.6-1.9-5.1-2.7-7.7
	c-0.2-0.6-0.5-0.8-1.1-0.5c-2.4,0.9-2.6,1.1-1.7,3.6c2.5,7.6,5.1,15.2,7.7,22.7c1.6,4.6,3.3,9.1,5,13.7c0.6,1.5,1.7,2.6,2.8,3.7
	c0.5,0.4,1,0.8,1.5,1.2C212.4,227.7,212.3,227.9,212.2,228z M218.8,235.5c-0.2-0.1-0.2-0.2-0.2-0.2c-3.5,0.2-7,0.4-10.6,0.7
	c-0.2,0-0.5,0.5-0.5,0.7c0.1,0.6,0.4,1.1,0.6,1.7c0.2,0.6,0.6,0.9,1.2,0.8c1-0.1,2.1,0,3.1-0.1c0.8-0.1,1.1,0.4,0.9,1
	c-0.1,0.4-0.4,0.8-0.7,1c-0.4,0.3-1,0.5-1.5,0.7c-0.5,0.2-0.7,0.5-0.5,1.1c0.4,1.5,1.2,2.6,2.5,3.6c0.8,0.6,1.5,1.5,2.2,2.2
	c0.1,0.1,0.4,0.3,0.5,0.3c1.2-0.7,2.5-0.7,4.1-0.4c-0.5-0.9-0.8-1.7-1.3-2.4c-1-1.5-2-2.9-3-4.4c-0.6-0.8-0.7-1.7-0.1-2.5
	c0.9-1.1,1.8-2.2,2.8-3.3C218.4,235.9,218.6,235.7,218.8,235.5z M228.8,247.1c-0.3-0.6-0.6-1.4-1.1-1.9c-1.8-2-3.8-3.9-5.7-5.8
	c-0.4-0.4-0.7-0.4-1.2,0c-0.5,0.5-1.1,0.9-1.7,1.3c-0.4,0.3-0.5,0.5-0.2,0.9c2.1,2.1,3.8,4.5,5.1,7.2c0.1,0.2,0.3,0.4,0.5,0.4
	c1,0,2.1,0.1,3.1,0c0.2,0,0.6-0.2,0.7-0.4C228.5,248.3,228.6,247.8,228.8,247.1z M183.1,102.4c0.5-3.9,2.1-7.1,4.6-10.1
	c2.9-3.3,6.4-5.2,10.7-5.5c4.2-0.3,8.4-0.5,12.6-1.4c7.2-1.5,11.6-6.1,14-12.7c1.1-2.9,1.4-6,1.9-9.1c0.4-2.1,0.1-4.3-1-6.2
	c-1.9-3.3-4.6-5.7-8-7.3c-2.4-1.1-4.8-2-7.4-1.8c-1.3,0.1-2.5,0.2-3.8,0.4c-1.9,0.3-3.7,0.9-4.8,2.7c-0.2,0.4-0.2,1-0.3,1.5
	c0.1,0.1,0.3,0.1,0.4,0.2c0.1-0.1,0.1-0.3,0.2-0.4c0.7-1.8,2.1-2.4,3.9-2.2c3.7,0.4,6.5,2.2,8.6,5.3c1.5,2.2,3.2,4.3,4.8,6.5
	c0.4,0.5,0.7,1,0.9,1.5c1.2,3.3,1,6.7,0.2,10c-0.5,1.7-1.4,3.3-2.9,4.2c-3.4,2.2-7.2,3.5-11.3,3.6c-5,0.1-10,0-15,0.1
	c-2.7,0-5.4,0.4-7.9,1.6c-3.6,1.6-5.9,4.2-6.5,8.1c-0.5,3.4,0,6.6,2.8,9c1,0.9,2,1.8,3.3,2.2C183.1,102.6,183.1,102.5,183.1,102.4z
	 M109.5,51.6c-0.3-0.3-0.6-0.6-0.9-0.9c-1.7-1.2-3.7-1.7-5.8-2c-4.4-0.7-8.8-0.6-13,1.3c-5.5,2.5-8.2,6.7-8,13
	c0.1,3.5,1.1,6.9,2.3,10.1c1.9,5.4,5.2,9.6,10.7,11.7c3.7,1.4,7.6,1.7,11.5,2.1c2.9,0.3,5.9,0.3,8.8,1.2c3.8,1.3,7.1,3.5,10.2,5.9
	c0.7,0.6,1.2,1.7,1.4,2.6c0.5,2.2,0.8,4.5,1.3,6.9c0.9-0.7,1.8-1.3,2.5-2.1c0.8-0.9,1.7-2,2.2-3.1c1.3-3.4,1-6.7-0.8-9.8
	c-2-3.5-5-5.6-8.9-6.1c-3.2-0.4-6.5-0.4-9.8-0.5c-4.6-0.1-9.1-0.1-13.7-0.3c-3.3-0.1-6.4-1.4-9.1-3.3c-1.5-1.1-2.6-2.6-2.8-4.5
	c-0.4-4.1,0-8.1,1.3-12c1.7-4.9,5.1-8.3,9.7-10.3c3.5-1.6,7.1-1.9,10.5,0.4C109.3,51.7,109.4,51.6,109.5,51.6z M79.4,75.9
	c-0.8,0.2-1.5,0.5-2.2,0.7c-0.5,0.1-0.7,0.4-0.4,0.8c0.2,0.4,0.4,0.8,0.7,1.2c0.8,1.1,1,1.1,2,0.3c0.6-0.5,1.2-0.5,1.6,0.1
	c0.7,1.1,1.3,2.3,2,3.5c0,0.1-0.2,0.5-0.4,0.5c-0.4,0.2-0.8,0.2-1.2,0.4c-2,0.7-2.5,3.4-0.8,4.9c0.3-0.4,0.6-0.8,0.8-1.2
	c0.6-0.9,1.4-1.4,2.5-1.4c0.6,0,1.1,0,1.7,0c1.8,0,2.8,0.8,3.3,2.5c0.1,0.3,0.3,0.8,0.6,0.9c2.3,0.6,4.6,1.2,6.9,1.8
	c2.8,0.7,5.6,1,8.4,1.1c1.9,0.1,3.9,0.2,5.8,0.6c2,0.3,3.7,1.4,5,2.9c1,1.2,0.7,2.1-0.7,2.6c-0.3,0.1-0.5,0.1-0.8,0.2
	c-0.5,0.1-1.1,0-1.6,0.2c-2.6,0.9-4-0.8-5.4-2.3c-0.9-0.9-2.2-1.2-3-0.1c-0.7,0.9-1.2,2-1.5,3.1c-0.6,1.8-1.7,2.3-3.4,1.3
	c-1.2-0.7-1.7-1.9-1.7-3.2c0-0.4-0.1-0.8-0.1-1.2c-2.2,0.1-3.5,1.3-3.9,3.2c-0.1,0.7-0.1,1.4-0.3,2.1c-0.2,1.2-0.9,2-1.8,2.9
	c-0.2-0.3-0.4-0.5-0.6-0.7c-0.7-0.7-1.3-1.5-2.1-2.2c-0.9-0.7-1.8-1-3-0.5c-1.7,0.6-3-0.2-4.1-1.3c-2.1-2.1-4.1-4.1-6.2-6.2
	c-0.9-0.9-2-1.8-2.9-2.7c-0.8-0.8-1.2-1.7-1.2-2.8c-0.2-4.4-0.4-8.9-0.5-13.3c0-1.5,0.3-3.1,0.5-4.7c0-0.1,0.1-0.3,0.1-0.4
	c1.1-1.8,2.1-3.6,2.8-5.5c0.3-0.9,1.4-1,2.1-0.4c1.2,0.9,1.5,1.8,1,3.2c-0.3,0.9-0.6,1.8-0.9,2.7c-0.2,0.8-0.6,1.6-1.4,2.1
	c-0.2,0.1-0.4,0.6-0.4,0.8c0.1,0.7,0.3,1.4,0.6,2.1c0.3,0.7,0.7,0.8,1.4,0.4C78.2,73.8,78.9,74.2,79.4,75.9z M88.2,95.4
	c1.6,0.1,2.5-1.2,2-2.6c-0.2-0.4-0.6-0.8-0.9-1.1c-0.3,0.3-0.7,0.5-0.9,0.9c-0.6,0.8-1.4,0.8-1.9,0.1c-0.3-0.4-0.5-0.9-0.8-1.4
	c-0.4-0.8-1-0.8-1.7-0.5c-0.9,0.4-1,1.3-0.2,2.3C85,94.4,86.6,95.2,88.2,95.4z M225,82.6c0.6-1.1,1.2-2.1,1.9-3.2
	c0.3-0.6,0.7-0.6,1.2-0.1c0.8,0.8,1.1,0.8,1.9-0.1c0.2-0.2,0.4-0.5,0.6-0.7c0.6-0.8,0.5-1.3-0.3-1.8c-0.6-0.4-1-0.7-0.4-1.4
	c0.6-0.7,1.4-1,2-0.6c0.8,0.5,0.9,0.5,1.1-0.5c0.3-1.6,0.2-1.8-1.1-2.7c-0.2-0.2-0.4-0.4-0.5-0.7c-0.3-1.3-0.5-2.7-0.7-4
	c-0.2-1.5,0.5-2.3,1.9-2.5c1-0.2,1.4,0.1,1.8,1c0.8,1.8,1.6,3.6,2.4,5.4c0.9,2.3,1.1,4.7,1,7c0,1.6-0.6,3.1-0.9,4.7
	c-0.2,1.4-0.4,2.9-0.4,4.3c0,0.8,0.4,1.7,0.7,2.4c0.3,0.6,0.3,1.1-0.2,1.5c-0.2,0.2-0.4,0.3-0.6,0.5c-2.7,1.4-4.7,3.7-6.9,5.7
	c-1,1-2.1,2-3.2,2.9c-1.1,0.9-2.3,1.6-3.9,0.9c-0.7-0.3-1.1,0-1.3,0.7c-0.1,0.7-0.2,1.4-0.4,2c-0.1,0.3-0.2,0.7-0.4,1
	c-0.4,0.6-0.9,0.6-1.3,0c-0.8-1.3-1.7-2.5-2.4-3.8c-0.8-1.4-1.8-2.5-3.3-3c-0.7-0.2-1.2-0.6-1.5-1.2c-0.1-0.3-0.6-0.6-0.7-0.5
	c-0.3,0.1-0.5,0.5-0.6,0.8c-0.2,0.5-0.1,1.1-0.3,1.7c-0.2,0.6-0.3,1.2-0.7,1.6c-1,1.2-2.2,1-3-0.3c-0.7-1.3-1.4-2.5-2.2-3.7
	c-1-1.4-2-1.2-2.5,0.3c-0.3,0.8-0.8,1.4-1.6,1.7c-0.1,0-0.1,0-0.2,0.1c-1.9,1.5-3.7,0.7-5.5-0.1c-1.1-0.5-1.4-1.6-0.7-2.6
	c1-1.4,2.3-2.2,4-2.4c2.8-0.4,5.6-0.6,8.4-1.2c3.9-0.7,7.7-1.6,11.5-2.5c0.4-0.1,0.9-0.5,1-0.9c0.7-2.6,2.1-3,5-2.5
	c1.3,0.2,2.3,0.8,2.8,2.1c0.2,0.6,0.6,0.5,1,0.2c1.4-0.9,1.4-3.2,0-4C226.9,83.7,226,83.2,225,82.6z M216.6,94.1c0.1,1,1,2,1.8,1.8
	c1.1-0.3,2.3-0.7,3.3-1.1c0.9-0.4,1.5-1.2,1.7-2.2c0.1-0.4,0-1.1-0.3-1.3c-0.7-0.4-1.4-0.1-1.8,0.6c-0.1,0.2-0.2,0.6-0.4,0.7
	c-0.4,0.4-0.9,0.8-1.4,0.9c-0.2,0-0.6-0.6-0.9-1c-0.4-0.7-1.1-0.8-1.5-0.1C217,92.9,216.8,93.5,216.6,94.1z M154.7,74.1
	c0.5-0.4,0.8-0.7,1.1-1.1c1.6-1.6,1.9-3.8,2.4-5.9c0.7-3.1,1.4-6.2,2.2-9.3c0.3-1.3,0.6-2.6,1-3.8c0.2-0.6,0.5-1.3,1.3-1.2
	c0.8,0.1,1.2,0.7,1.2,1.5c0,1.7-0.1,3.3-0.1,5c-0.1,4.1-0.2,8.2-0.2,12.3c0,0.5,0.3,1.5,0.6,1.5c1,0.3,2.3,0.7,3-0.3
	c0.9-1.1,1.6-2.4,2.1-3.8c1-2.7,1.7-5.5,2.6-8.2c0.5-1.5,1.2-2.9,2-4.4c0.4-0.9,1.1-0.9,2.2-0.4c1.1,0.5,1.5,1,1.1,1.9
	c-1.7,4.5-2.1,9.2-3,13.9c-0.2,0.8-0.4,1.5-0.7,2.3c-0.5,1.4-1.4,2-2.9,2c-2.2,0-4.5-0.1-6.7-0.1c-6.3,0-12.6,0.1-18.8,0.1
	c-1.3,0-2.7-0.1-4-0.4c-1.9-0.4-2.7-1.4-2.8-3.3c-0.1-1.8-0.4-3.6-0.3-5.4c0.1-2.8-0.8-5.3-1.8-7.9c-0.2-0.6-0.4-1.1-0.6-1.7
	c-0.2-0.8,0-1.5,0.7-1.9c0.7-0.5,1.4,0,1.7,0.5c0.8,1.2,1.7,2.5,2.2,3.9c1,2.6,1.5,5.3,2.5,7.8c0.8,1.9,1.9,3.6,3,5.4
	c0.3,0.5,0.7,1,1.5,0.8c0.7-0.2,1-0.8,1.1-1.4c0.3-2.4,0.6-4.9,0.8-7.3c0.2-3.4,0.2-6.9,0.4-10.3c0-0.4,0.2-0.8,0.4-1.2
	c0.6-0.9,1.4-0.9,1.9,0c0.3,0.6,0.7,1.3,0.8,2c0.5,3.5,1,7.1,1.4,10.6C154,68.9,154.3,71.4,154.7,74.1z M160.2,69.8
	c0.7-0.9,0.7-4.6,0-5.4C160.2,66.2,160.2,67.9,160.2,69.8z M150.8,65.3c0,1.4,0,2.9,0,4.3C151.2,68.1,151.6,66.7,150.8,65.3z
	 M140,68.1c0.5-1.1,0.4-2.4-0.2-3C139.8,66.2,139.6,67.1,140,68.1z M171.5,69.7c0.1,0,0.2,0,0.3,0c-0.1-1.3,0.9-2.5,0.8-3.8
	c-0.1,0-0.3,0-0.4-0.1C172,67.1,171.7,68.4,171.5,69.7z M168.2,148.4c-0.3,0.1-0.6,0.3-0.8,0.3c-0.6-0.2-1.1-0.5-1.6-0.8
	c-1.9-1-3.3-0.9-5,0.5c-1.6,1.5-3.2,3-4.3,5c-0.1,0.2-0.3,0.5-0.5,0.7c-0.5,0.7-0.8,0.7-1.3-0.1c-0.8-1.1-1.6-2.3-2.6-3.3
	c-1.4-1.5-3.1-2.6-5.1-3.1c-1.3-0.3-2.5-0.2-3.7,0.5c-0.3,0.2-0.7,0.2-1.1,0.2c0-0.3-0.1-0.7,0-1c1.2-3.5,2.4-7.1,3.6-10.6
	c1.3-3.6,2.7-7.1,4.1-10.7c1.3-3.6,2.6-7.3,3.9-11c0.2-0.6,0.2-1.3,0.5-1.8c0.2-0.4,0.6-0.6,0.9-0.9c0.2,0.3,0.6,0.6,0.7,0.9
	c0.7,2.4,1.3,4.9,2.1,7.3c1.2,3.5,2.5,7,3.7,10.5c2,5.5,4.1,11,6.1,16.4C168,147.5,168,147.8,168.2,148.4z M162.3,133.4
	c-0.1,0-0.2-0.1-0.3-0.1c-1.2,2.5-2.5,4.9-3.7,7.4c-0.6,1.3-1.7,1.8-3,2c-1.1,0.1-1.7-0.8-2.3-1.6c-0.1-0.1-0.1-0.2-0.2-0.3
	c-1.2-2.4-2.9-4.6-3.3-7.4c0-0.2-0.1-0.3-0.2-0.5c-0.2,1.5-0.3,2.9,0.3,4.2c0.6,1.1,0.6,2.2,0.5,3.3c-0.1,1.2-0.2,2.4,0,3.5
	c0.5,3.2,2.6,5.7,4.7,8c0.4,0.5,0.7,0.4,1.1,0c0.8-0.9,1.5-1.7,2.3-2.6c2.5-2.8,3.6-5.9,3.1-9.7c-0.1-1,0.1-2,0.3-2.9
	C161.7,135.6,162,134.5,162.3,133.4z M158.7,131.4c-0.1,0-0.2,0-0.4,0c-0.1,0.3-0.1,0.7-0.2,1c-0.3,0.8-0.5,1.8-1,2.5
	c-0.8,1.2-2.3,1.2-3.3,0.2c-0.5-0.6-0.8-1.4-1.2-2.1c-0.2-0.3-0.2-0.7-0.3-1.1c-0.7,0.8-0.6,1.6-0.5,2.3c0.2,1.8,1.6,3.2,3.1,3.3
	c1.4,0.1,2.4-0.6,3.2-1.7C159,134.3,159.1,132.9,158.7,131.4z M155,129.1c0.1,0,0.2,0,0.3,0c0.5-0.7,0.6-3.3,0-4.4
	C155.2,126.3,155.1,127.7,155,129.1z M72.5,171.6c0.4,2.5,0.9,5.1,1.6,7.5c1.2,4.2,3.8,7.7,6,11.4c0.5,0.8,1.2,1.6,1.9,2.3
	c1.3,1.1,3.2,0.5,3.5-1.2c0.1-0.9,0-1.9-0.3-2.8c-1.4-4.4-3.2-8.7-4.4-13.1c-1-3.8-1.8-7.7-2.1-11.6c-0.5-7.2-0.1-14.3,1.5-21.3
	c0.3-1.2,0-1.8-1.1-2.4c-0.7-0.4-1.4-0.5-2-0.1c-0.7,0.4-1.4,0.9-1.9,1.4c-1.5,1.5-2.1,3.4-2.8,5.3c-1,2.9-1,5.9-1,9
	C71.2,161.2,71.7,166.4,72.5,171.6z M169.8,216.1c-1.5-1.1-3.1-1.8-5-1.1c-5.1,1.8-10.4,2.3-15.7,1.3c-2.4-0.5-4.8-1-6.8-2.6
	c-0.2-0.1-0.7-0.1-0.8,0.1c-1.3,1.4-2.3,3-2.2,5.1c0.1,2.2,1.4,3.9,2.7,5.6c0.4,0.6,0.9,1,1.7,1c0.6,0,0.8,0.3,0.8,0.9
	c0,0.2,0.4,0.7,0.6,0.7c1.1-0.1,1.7,0.3,2,1.4c0.3,0.9,0.9,0.9,1.6,0.3c0.3-0.3,0.5-0.7,0.9-0.9c0.4-0.2,0.9-0.3,1.3-0.2
	c0.2,0.1,0.5,0.5,0.6,0.9c0.2,0.7,0.2,1.4,0.4,2c0.2,0.7,0.7,1.1,1.5,1c0.8-0.1,1.2-0.6,1.3-1.3c0.1-0.6,0.2-1.1,0.2-1.7
	c0-0.9,0.6-1.1,1.4-1.1c0.9,0,0.8,0.6,0.9,1.1c0.2,0.9,0.5,1.7,0.9,2.5c0.2,0.5,0.7,0.5,1,0.1c0.4-0.6,0.6-1.3,0.9-1.9
	c0.2-0.6,0.3-1.2,0.4-1.7c0.6,0.4,1.1,0.7,1.7,1.1c0,0,0,0,0.1,0.1c0.7,0.8,1.3,0.8,1.8-0.2c0.2-0.3,0.3-0.7,0.4-1
	c0.1-0.6,0.3-0.8,1-0.6c0.6,0.2,1.4,0.3,1.6-0.5c0.1-0.7,0.5-0.9,1.1-1.1c0.2-0.1,0.5-0.2,0.6-0.4c1.4-1.5,2.4-3.3,2.5-5.3
	C171.1,218.2,170.9,216.9,169.8,216.1z M230,157.8c-0.2-3.4-0.4-6.9-0.8-10.3c-0.2-1.6-0.7-3.1-1-4.7c-0.2-0.8-0.1-1.4,0.6-2
	c0.7-0.6,1.6-1,2.4-0.4c0.9,0.7,1.8,1.5,2.6,2.3c1.5,1.5,2.6,3.2,3,5.4c0.2,1.4,0.3,2.8,0.3,4.2c0.2,5,0.1,10-0.5,14.9
	c-1,7.1-2.7,14-6.2,20.3c-0.7,1.3-1.4,2.6-2.1,3.9c-0.2,0.4-0.5,0.8-0.8,1.2c-0.7,0.8-1.8,0.8-2.6,0.1c-1.4-1.3-1.8-2.9-1.2-4.7
	c1-2.9,2-5.8,3-8.6c2.4-7,3.5-14.2,3.1-21.7C229.8,157.8,229.9,157.8,230,157.8z M228.9,182.9c-0.6,0.7-1,1.2-1.4,1.7
	C228.4,184.9,228.9,184.4,228.9,182.9z M76.7,134.7c1.9-0.7,3.4-1.8,4.2-3.7c1.5-3.3,3.3-6.4,5.5-9.2c1.6-2.1,3.2-4.3,5.5-5.7
	c3.7-2.1,7.5-4.1,11.3-6c1.8-0.9,3.8-1.4,5.9-1.2c0.6,0.1,1.1-0.2,1.4-0.8c0.5-1,0.3-2-0.6-2.7c-1-0.8-2.2-0.9-3.4-0.8
	c-2.2,0.2-4.5,0.4-6.6,0.8c-3.4,0.6-6.6,1.7-9.6,3.7c-5.1,3.4-9,7.9-12.5,12.8c-2.3,3.3-3.1,7-3.9,10.5
	C73.9,134.3,75.1,135.3,76.7,134.7z M109.1,115.3c-1.7,0.8-3.4,1.4-5,2.3c-6.6,3.2-11.3,8.2-14.6,14.7c-2,3.9-2.9,8.1-3.1,12.5
	c-0.1,2.2-0.4,4.4-0.8,6.5c-0.3,1.3-0.9,2.4-1.5,3.8c0.8-0.2,1.6-0.3,2.3-0.6c2-0.8,3.2-2.5,4.2-4.3c1.8-2.9,2.9-6.1,3.7-9.5
	c0.7-2.8,1.5-5.6,3.1-8.2c1.9-3.1,4.4-5.6,7.2-7.8c3.4-2.6,5.8-5.7,5.9-10.2C110,114.8,109.6,115.1,109.1,115.3z M234.6,131.9
	c-0.1-0.5-0.3-1-0.4-1.5c-0.6-2.8-1.2-5.4-2.7-7.9c-1.4-2.3-3.1-4.3-4.9-6.3c-2.6-2.9-5.6-5.2-8.9-7.1c-4.3-2.6-9-4.1-14.1-4.4
	c-0.4,0-0.9-0.1-1.3,0c-1.1,0.2-2,1.3-2,2.4c0,1.1,0.7,1.7,2,2c0.6,0.1,1.3,0.2,1.8,0.4c3.2,1.5,6.5,2.9,9.7,4.5
	c5.4,2.8,9.1,7.2,11.9,12.5c0.9,1.8,1.6,3.6,2.5,5.4c0.9,1.7,2.1,2.8,3.8,3C234.1,134.9,235.1,133.7,234.6,131.9z M133,206.1
	c0.8,2.1,2.4,2.7,4.1,3.3c0.9,0.3,1,1,0.8,1.9c-1.4,4.8-3.9,9-7.5,12.5c-3.8,3.7-7.9,7.1-12.2,10.3c-0.5,0.3-0.9,0.7-1.5,0.9
	c-1.9,0.8-3.8-0.3-4-2.5c-0.5-3.6,0.9-6.2,3.8-8.2c3.2-2.2,5.9-4.9,8.3-7.9c1.8-2.2,3.4-4.6,5.2-6.8
	C130.9,208.4,131.8,207.4,133,206.1z M126.2,221c-0.1,0-0.1,0-0.2,0c-0.6,0.8-1.1,1.6-1.7,2.4c-1.4,1.7-2.8,3.4-5.1,3.9
	c-0.4,0.1-0.9,0.3-0.6,1c0.2,0,0.4,0,0.5-0.1c1.9-0.9,3.7-1.8,5-3.4c0.7-0.9,1.4-1.9,2-2.9C126.3,221.6,126.2,221.3,126.2,221z
	 M223.5,153c-1.3-3.5-1.4-7.3-1.7-11c-0.3-4-1-7.8-3.4-11.1c-1.3-1.8-2.8-3.5-4.2-5.3c-0.6-0.7-1-1.6-1.6-2.2
	c-1.8-1.5-3.6-3-5.6-4.2c-2.9-1.8-6-3.3-8.9-4.9c0.1,0.3,0.1,0.8,0.2,1.3c1,4.1,3.1,7.5,6.5,10c1.6,1.2,3.1,2.5,4.5,3.9
	c2.6,2.7,3.6,6.2,4.6,9.7c1.2,4.3,2.4,8.5,5,12.1c1.4,1.9,2.9,3.6,5.5,3.8C224.1,154.4,223.7,153.7,223.5,153z M196.1,231.9
	c0,2.7-1.8,4-4.2,2.9c-3.5-1.7-6.6-3.9-9.3-6.7c-3-3.1-6.2-6.3-8.4-10c-1.3-2.2-2.6-4.5-3-7c-0.2-1.2,0-1.4,1.1-1.7
	c0.2,0,0.4-0.1,0.5-0.1c1.2,0,1.9-0.5,2.4-1.6c0.3-0.7,0.6-0.6,1.1-0.2c3,2.6,5.2,5.9,7.5,9c2,2.7,4.1,5.3,7,7.1
	c2.8,1.8,4.7,4.3,5.2,7.7C196.1,231.6,196.1,231.8,196.1,231.9z M181.4,218.7c-0.1,0-0.2,0.1-0.3,0.1c0,0.3-0.1,0.7,0.1,0.9
	c1.5,2.9,3.6,5.4,6.6,7c0.4,0.2,0.9,0.1,1.3,0.2c0-0.1,0-0.2,0.1-0.3C185.5,225.1,183.3,222,181.4,218.7z M95.2,177.2
	c0-0.5-0.1-0.9,0-1.4c0.1-0.8,0.3-1.5,0.5-2.3c0.5-2,1-4,2.3-5.6c1.5-2,2.9-4.1,4.6-5.9c1.3-1.5,2.9-2.8,4.4-4.1
	c0.7-0.6,1.7-1,2.5-1.6c0.2-0.2,0.2-0.8,0.2-1.2c0-0.1-0.7-0.3-0.9-0.2c-3.3,1.7-6.6,3.6-9,6.5c-1.9,2.2-3.4,4.8-5.1,7.2
	c-2.2,3.3-3.5,6.8-3.6,10.8c-0.1,3.7,0.1,7.4,2,10.7c0.7,1.2,1.5,2.3,2.5,3.3c0.8,0.9,1.8,0.5,2.2-0.6c0.2-0.5,0.3-1.1,0.3-1.7
	c-0.1-6.1,0.2-12.1,2.3-17.9c0.3-0.8,0.5-1.6,1-2.3c1.3-1.8,2.8-3.6,4.1-5.4c0.6-0.8,1.3-1.7,1.8-2.6c0.4-0.7,0-1.9-0.6-2.2
	c-0.8-0.4-1.2,0.3-1.6,0.8c-1.3,1.5-2.5,3-3.9,4.4c-2.2,2.4-3.9,5.2-4.8,8.4c-0.2,0.9-0.5,1.8-0.7,2.7
	C95.5,177.3,95.4,177.2,95.2,177.2z M210.4,190.6c0.1,1,0.2,2.1,1.2,2.4c1.1,0.4,1.8-0.7,2.3-1.5c3.2-5.3,3.7-11.1,2.6-17.1
	c-0.8-4.1-3.1-7.6-5.9-10.6c-3.1-3.4-6.7-6.5-10.7-8.9c-0.3-0.2-0.8-0.2-1.1-0.3c0,0.5-0.2,1,0,1.4c0.4,0.6,1,1.2,1.6,1.7
	c1.4,1.2,3,2.2,4.3,3.5c1.7,1.8,3.2,3.7,4.7,5.6c0.8,1.1,1.7,2.2,2.2,3.5c0.7,1.7,1,3.6,1.5,5.4c0.1,0.5-0.1,1.1-0.1,1.6
	c-0.3-0.5-0.7-0.9-0.9-1.4c-0.4-1.3-0.6-2.6-1.1-3.8c-1.6-4.3-5-7.3-7.9-10.7c-0.5-0.6-1.1-0.6-1.7-0.2c-0.7,0.4-0.6,1-0.3,1.6
	c0.5,1,1,2,1.7,3c1.4,2.1,3.2,4,4.3,6.2c2.4,4.8,4,9.8,3.4,15.2C210.3,188.2,210.3,189.4,210.4,190.6z M215,166.1c0-2.2,0-4.5,0-6.7
	c0-3.3-0.6-6.5-2.4-9.3c-1.4-2.2-2.7-4.6-4-6.9c-0.2-0.3-0.4-0.6-0.7-0.9c-0.4-0.5-0.8-0.5-1.2,0.1c-1.2,1.8-2.6,3.4-3.1,5.6
	c-0.1,0.6-0.6,0.8-1.1,0.6c-0.4-0.1-0.9-0.2-1.2-0.5c-1.3-1-2.6-2.1-3.9-3.2c-0.3-0.3-0.5-0.7-1-0.4c-0.5,0.3-0.9,0.6-0.7,1.2
	c0.4,1.8,0.9,3.7,2.3,5c2.1,2,4.3,4.1,6.5,6c3.5,3,6.5,6.4,9.5,9.8c0.2,0.2,0.4,0.4,0.8,0.8C214.9,166.8,215,166.5,215,166.1z
	 M93.9,167.4c0.9-1.2,1.8-2.5,2.7-3.7c2.5-3.4,5.5-6.4,9.1-8.6c3.2-1.9,5-4.8,5.6-8.5c0.1-0.6,0-1.2,0-1.9c-2.4,1.3-4.6,2.4-7,3.6
	c-0.1-0.6-0.2-0.9-0.2-1.2c-0.3-1.7-1-3.4-2.2-4.7c-0.3-0.3-0.9-0.7-1.2-0.6c-0.4,0.1-0.8,0.7-0.9,1.1c-0.5,2.3-1.5,4.2-3,6
	c-1,1.2-1.9,2.5-2.4,3.9c-1.8,4.8-1.7,9.8-1.3,15.1C93.6,167.7,93.8,167.6,93.9,167.4z M77.4,218.2c0.5-2,0.9-3.9,1.4-5.9
	c0.3-1.2,0.8-2.5,1.3-3.7c0.4-0.8,0.9-1.6,1.5-2.4c1.1-1.5,2.2-2.9,3.3-4.3c0.4-0.6,1-1,1.4-1.6c0.5-0.7,1-1.5,1.5-2.2
	c0.3-0.5,0.5-1.2,0.7-1.8c0.2-0.6,0.6-1.1,1.4-1.1c0.8,0,1.2,0.4,1.5,1.1c1.3,2.8,1.4,5.7,0.2,8.6c-1.4,3.4-3.5,6.4-6.5,8.6
	c-1.6,1.2-2.6,2.6-3.1,4.6c-0.2,0.9-0.6,1.8-0.9,2.7c-0.2,0.4-0.5,0.9-0.9,1.1c-0.4,0.2-1.1,0.5-1.5,0.3c-0.4-0.2-0.7-0.8-0.8-1.3
	c-0.2-0.9-0.2-1.9-0.3-2.8C77.5,218.2,77.4,218.2,77.4,218.2z M88.1,205.9c-0.1-0.1-0.2-0.2-0.4-0.2c-1.7,2.5-3.4,5-5.1,7.5
	c0.1,0.1,0.2,0.1,0.3,0.2C84.9,211,86.8,208.7,88.1,205.9z M214.8,201.4c0.2-2.2,0.5-3.9,1.5-5.3c0.9-1.2,2.1-1.1,3,0
	c0.2,0.2,0.3,0.4,0.5,0.7c2.5,4.9,5.1,9.7,7.3,14.7c1.2,2.7,1.7,5.7,2.5,8.6c0.1,0.3,0.1,0.7,0.1,1c-0.1,0.7-0.3,1.4-1,1.4
	c-0.6,0.1-1.3-0.1-1.7-0.4c-0.4-0.3-0.8-0.9-1-1.5c-0.7-3.5-3.1-5.9-5.4-8.4c-1.9-2.1-3.7-4.4-4.8-7
	C215.4,203.9,215.1,202.5,214.8,201.4z M225.2,213.9c-0.2-0.3-0.4-0.5-0.7-0.8c-1.6-1.8-3.3-3.4-4.2-5.7c-0.1-0.3-0.5-0.5-0.8-0.8
	c-0.1,0.1-0.2,0.2-0.3,0.3C220.9,209.5,222.3,212.2,225.2,213.9z M203.5,141.9c1.3-1.3,1.9-3,2.2-4.8c0.3-1.9-0.2-3.5-1.9-4.5
	c-2.3-1.4-4.7-2.9-7-4.3c-1.7-1.1-3.5-2.1-5.2-3.2c-0.8-0.5-1.2-0.6-1.5,0.3c-0.2,0.4-0.1,1,0,1.5c0.2,0.7,0.5,1.4,0.8,2.1
	c1,2.5,2.2,4.9,4.2,6.8c1.1,1,1.5,2.4,1.7,3.8c0.1,0.6,0.4,1.4,0.9,1.8c0.9,0.9,2.1,1.5,3.4,1.4
	C202.3,142.9,202.7,142.7,203.5,141.9z M104.2,136.5c-0.1,0.5-0.4,1.1-0.3,1.5c0.3,1.2,0.7,2.4,1.2,3.6c0.5,1.1,1.5,1.4,2.6,1.4
	c1.9,0,3.2-1,3.9-2.7c0.9-2.3,2.2-4.4,3.6-6.3c1.7-2.3,3.3-4.5,4.1-7.3c0.2-0.6,0.2-1.2-0.4-1.4c-0.4-0.2-1-0.2-1.5,0
	c-1,0.4-1.9,1-2.9,1.5c-4.1,1.8-7.4,4.5-9.4,8.6c-0.2,0.4-0.1,0.8-0.2,1.2c0,0.3,0,0.5-0.1,0.8c-0.1,0-0.2,0-0.3,0
	c-0.1-0.3-0.2-0.5-0.3-0.8C104.3,136.5,104.2,136.5,104.2,136.5z M139,256.4c1,0.4,1.9,0.2,2.6-0.6c0.9-1,1-1.9,0.4-3.1
	c-0.1-0.2-0.2-0.5-0.2-0.7c0-1.7-0.2-3.4,0.1-5c0.6-2.8,1.6-5.5,2.4-8.3c0.2-0.7,0.5-1.4,0.6-2.2c0.2-1.1-0.4-2.1-1.3-2.1
	c-1.8-0.1-3.7,1.4-4,3.1c-0.2,1.2-0.4,2.4-0.7,3.6c-1.2,4.1-1.5,8.3-1.8,12.5C137.2,254.8,137.9,256,139,256.4z M168.6,253
	c-0.1,1.5,0.2,2.2,1.5,2.8c1.1,0.5,2,0.1,2.7-0.6c0.7-0.6,1-1.3,0.6-2.3c-0.2-0.5-0.2-1.1-0.3-1.6c-0.3-2.2-0.4-4.5-0.8-6.7
	c-0.6-2.7-1.4-5.4-2.1-8c-0.2-0.7-0.6-1.4-1.2-1.9c-0.8-0.7-1.7-0.5-2,0.4c-0.7,1.9-1.2,3.8,0.2,5.6c0.1,0.1,0.2,0.3,0.2,0.5
	c1,2.3,1.1,4.8,1.3,8C168.8,250,168.8,251.5,168.6,253z M125.4,75.7c-1.7-1.2-3.4-2.4-5.1-3.6c-2.3-1.7-4.2-3.6-4.3-6.8
	c0-0.6-0.2-1.2-0.5-1.7c-0.3-0.4-0.8-1-1.3-1c-0.4,0-0.9,0.6-1.1,1.1c-0.4,1-0.6,2-0.8,3.1c-0.4,1.9-0.7,3.7-0.1,5.6
	c0.6,2,2.6,3.6,4.8,3.7c1.9,0,3.9,0,5.8,0c0.9,0,1.7-0.1,2.6-0.1C125.4,75.9,125.4,75.8,125.4,75.7z M155.4,91.6c3,0,6,0,9.1,0
	c2.3,0,2.2,0,2.2-2.2c0-0.6-0.2-0.9-0.8-1c-1.7-0.1-3.3-0.4-5-0.4c-5.1,0-10.2,0.1-15.3,0.1c-1.2,0-1.4,0.3-1.4,1.5
	c0,0.2,0,0.4,0,0.6c0,1.3,0.2,1.4,1.4,1.4C148.9,91.7,152.1,91.7,155.4,91.6C155.4,91.6,155.4,91.6,155.4,91.6z M137.3,76
	c-1.4,0-2.6,0-3.9,0c-1.7,0-3.4,0-5.1,0c-1.3,0-1.6-0.3-1.9-1.5c-0.2-0.8-0.3-1.6-0.3-2.4c-0.1-2.5-0.7-4.8-2.1-6.9
	c-0.2-0.4-0.4-0.7-0.6-1.1c-0.2-0.5-0.6-1-0.1-1.5c0.6-0.5,1.3-0.9,2.1-0.5c0.7,0.5,1.3,1.1,1.8,1.8c1.6,2,3.1,4.1,4.6,6.1
	c0.1,0.1,0.2,0.2,0.2,0.3c1.1,2.3,3.2,3.5,4.9,5.3C137,75.6,137.1,75.7,137.3,76z M130.7,74.3c0.4-1.2,0-2.8-0.9-3.3
	C130,72.1,130.3,73.1,130.7,74.3z M174.6,76.1c1.3-1.1,2.6-1.9,3.5-3.1c1.9-2.4,3.9-4.8,4.8-7.8c0.2-0.7,0.6-1.3,1-1.9
	c0.6-0.8,1.7-1.1,2.7-0.8c0.9,0.3,1.4,1.1,1,1.9c-1.3,2.5-1.5,5.3-1.9,8.1c-0.1,0.6-0.2,1.1-0.3,1.7c-0.4,1.5-0.7,1.9-2.3,1.9
	C180.3,76.1,177.5,76.1,174.6,76.1z M181.3,71.4c-0.2,0-0.4,0-0.5-0.1c-0.1,0.9-0.1,1.7-0.2,2.6c0.1,0,0.3,0,0.4,0
	C181,73.1,181.2,72.2,181.3,71.4z M186.6,76.1c2.4,0,4.8,0,7.2,0c2.5,0,3.6-0.9,4.4-3.2c1-2.9,0.2-5.7-0.9-8.4
	c-0.1-0.3-0.5-0.6-0.8-0.8c-0.7-0.5-1.6-0.3-2,0.5c-0.2,0.3-0.2,0.7-0.3,1c-0.5,3-1.7,5.5-4,7.5c-1.2,1.1-2.5,2.2-3.7,3.2
	C186.6,75.9,186.6,76,186.6,76.1z M123.1,214.8c0.3,0.6,0.6,0.6,1,0.1c0.7-1,1.4-1.9,2.1-2.9c1.6-2,3.2-4.1,4.8-6.1
	c0.1-0.2,0.2-0.6,0.1-0.8c-0.6-1.1-1.3-2.1-2-3.2c-0.4-0.7-0.9-0.8-1.6-0.6c-1.7,0.6-3.1,1.5-4,3.1c-1.1,1.9-1.5,4-1.6,6.1
	C121.9,212.1,122.4,213.5,123.1,214.8z M154.4,212.9c2.5,0,5.1,0.1,7.6,0c0.8,0,1.6-0.3,2.3-0.7c0.7-0.3,1.2-1.9,0.9-2.6
	c-0.2-0.5-1.1-0.5-2.1-0.1c-0.5,0.2-1.2,0.4-1.7,0.3c-1.8-0.4-3.6-0.9-5.4-1.5c-0.7-0.2-1.4-0.3-2.1,0c-0.7,0.4-1.5,0.6-2.3,0.9
	c-1.5,0.5-3,0.3-4.5-0.1c-1-0.3-1.7,0.1-1.6,1c0,0.5,0.3,0.9,0.5,1.3c0.8,1,1.9,1.5,3.1,1.6C151,213,152.7,212.9,154.4,212.9
	C154.4,212.9,154.4,212.9,154.4,212.9z M186.5,215c0.9-3,0.9-5.9-1-8.7c-1.2-1.7-2.4-3.4-4.3-4.5c-1.2-0.6-1.5-0.4-1.7,0.8
	c-0.1,0.8-0.3,1.5-1.2,1.8c-0.9,0.3-0.9,0.8-0.4,1.4c1.4,1.8,2.7,3.6,4.1,5.4c1.2,1.5,2.6,3,4,4.6
	C186.3,215.5,186.4,215.2,186.5,215z M114,105.1c0,0.2,0,0.3,0.1,0.5c0.5,1.8,1.4,3.4,2.7,4.6c1.9,1.8,3.9,3.5,5.9,5.3
	c0.7-0.8,1.6-1.6,2.3-2.4c-1.4-1.3-2.7-2.5-4.2-3.8c0.9-0.4,1.6-0.4,2.2,0.2c0.9,1,1.8,1.9,2.7,2.9c0.6-0.8,1.2-1.6,1.7-2.3
	C123.4,107,118.9,105.4,114,105.1z M183.4,110.1c0.3-0.4,0.7-0.8,1-1.1c0.2-0.2,0.5-0.4,0.7-0.5c0.2-0.2,0.5-0.2,0.8-0.4
	c2.2-1.6,4.5-2.6,7.3-2.5c0.9,0,1.8-0.3,2.8-0.5c-0.2,0.5-0.3,1-0.5,1.4c-1.4,2.5-2.9,4.8-5.5,6.4c-0.9,0.5-1.6,1.4-2.3,2.1
	c-0.7,0.7-0.8,0.7-1.4-0.1c-0.5-0.7-1.2-1.3-1.7-2c-0.6-0.9-1.1-1.9-1.6-2.8C183.1,110.1,183.2,110.1,183.4,110.1z M185.1,112.7
	c0.1,0.1,0.1,0.2,0.2,0.3c0.3-0.2,0.7-0.2,1-0.5c1-0.9,2-1.9,2.9-2.9c0.2-0.2,0.1-0.6,0.2-1.1C187.3,109.5,186.1,111,185.1,112.7z
	 M130.7,238.8c-0.5-1.4-1.4-1.6-2.4-0.6c-0.6,0.7-1.4,1.4-1.7,2.2c-0.9,2.5-1.6,5-2.2,7.5c-0.1,0.5,0.2,1.2,0.5,1.6
	c1.5,1.6,4.1,0.7,4.6-1.5c0.2-0.9,0.3-1.8,0.4-2.7c0.3-1.8,0.6-3.6,0.9-5.5C130.8,239.6,130.8,239.2,130.7,238.8z M185.2,247.6
	c-0.4-1.8-0.8-3.5-1.2-5.3c-0.5-1.8-1.5-3.3-3-4.4c-1-0.7-1.8-0.4-2,0.7c-0.1,0.7-0.1,1.5,0,2.2c0.3,2.1,0.8,4.3,1.2,6.4
	c0.2,1.4,1.5,2.7,2.9,2.8c1.4,0.2,2.3-0.6,2.3-2.1C185.2,248,185.2,247.8,185.2,247.6z M173.4,166.1c-0.5,1.9-0.9,3.9-1.2,5.8
	c-0.1,0.6,0.3,1.3,0.5,2c0.7-0.4,1.5-0.6,2-1.1c1.3-1.5,2.5-3.1,3.7-4.7c1.3-1.8,0.5-3.4-1.8-3.3c-0.2,0-0.3,0-0.3,0
	C174.9,164.7,173.7,164.8,173.4,166.1z M132.5,166c-0.5,1-0.3,2,0.3,2.9c0.2,0.3,0.5,0.7,0.8,1c1.2,1.2,2.4,2.3,3.6,3.5
	c0.7,0.7,1.3,0.6,1.6-0.4c0.1-0.5,0.1-1,0-1.5c-0.1-0.6-0.3-1.3-0.5-1.9c-0.3-1.1-0.7-2.2-1.1-3.3c-0.4-1-1.1-1.5-2.1-1.3
	C134,164.9,133,165.1,132.5,166z M193.1,243c0.3,1,0.7,2,1.2,2.9c0.4,0.7,1,1.1,1.9,0.7c0.9-0.4,1.4-1.1,1.2-2.1
	c-0.2-1.3-0.5-2.7-0.8-4c-0.4-1.8-1.7-2.8-3.2-3.6c-0.9-0.4-1.3-0.1-1.4,0.9C192.3,239.6,192.6,241.3,193.1,243z M116.4,238.4
	c-0.6-0.5-1.4-0.8-2.1-1c-0.3-0.1-0.8,0.2-0.9,0.4c-0.9,2-1.8,4-1.9,6.2c-0.1,0.9,0.1,1.7,0.9,2.1c0.9,0.4,1.6-0.1,2.2-0.7
	c1.6-1.5,2-3.5,2.3-5.8C116.7,239.3,116.7,238.7,116.4,238.4z M123.4,167.2c0.7,0,0.7-0.4,0.3-0.8c-0.5-0.6-1.1-1.2-1.7-1.7
	c-0.9-0.8-1.8-1.2-3.1-0.7c-1.4,0.6-2.2,1.7-2.7,3.3C118.7,167.2,121,167.2,123.4,167.2z M157.9,239.8c0.1-0.7-0.1-1.1-0.8-1.2
	c-0.6-0.1-1.2-0.4-1.8-0.5c-1.4-0.3-2.5,0.6-2.6,2c-0.1,1.1,1.1,2.3,2.3,2.4C156.5,242.4,157.7,241.4,157.9,239.8z M189.3,164.2
	c-0.7,1.1-1.2,1.9-1.8,2.9c1.5,0.1,2.9,0.2,4.4,0.3C191.7,165.7,190.1,165.4,189.3,164.2z M116.4,136.3c-0.3,0-0.8,0.1-0.9,0.3
	c-0.5,0.9-0.9,1.9-1.3,2.9c-0.1,0.2,0,0.6,0.1,0.9c0.2,0.5,0.9,0.7,1.1,0.2c0.6-1.2,1.1-2.4,1.6-3.6
	C116.7,136.6,116.5,136.3,116.4,136.3z M192.9,135.8c-0.2-0.1-0.7-0.2-0.8-0.1c-0.2,0.2-0.2,0.7-0.1,0.9c0.5,1,1.1,1.9,1.7,2.8
	c0.2,0.3,0.6,0.4,1,0.7C195,138.6,194.1,136.4,192.9,135.8z M160.2,64.3c0,1.8,0,3.5,0,5.4C160.9,68.9,160.9,65.2,160.2,64.3z
	 M150.8,69.6c0.4-1.4,0.8-2.8,0-4.3C150.8,66.7,150.8,68.1,150.8,69.6z M139.8,65.2c0,1-0.2,1.9,0.2,3
	C140.5,67.1,140.4,65.7,139.8,65.2z M171.8,69.7c-0.1-1.3,0.9-2.5,0.8-3.8c-0.1,0-0.3,0-0.4-0.1c-0.2,1.3-0.5,2.6-0.7,3.9
	C171.6,69.7,171.7,69.7,171.8,69.7z M227.5,184.6c1,0.3,1.5-0.3,1.4-1.7C228.3,183.6,227.9,184.1,227.5,184.6z M129.7,71.1
	c0.3,1,0.6,2,0.9,3.3C131.1,73.1,130.7,71.5,129.7,71.1z M180.7,71.3c-0.1,0.9-0.1,1.7-0.2,2.6c0.1,0,0.3,0,0.4,0
	c0.1-0.9,0.2-1.7,0.3-2.6C181.1,71.4,180.9,71.3,180.7,71.3z"/>
</svg>
